<?xml version="1.0" encoding="UTF-8" standalone="no"?>
<svg
   xmlns:dc="http://purl.org/dc/elements/1.1/"
   xmlns:cc="http://creativecommons.org/ns#"
   xmlns:rdf="http://www.w3.org/1999/02/22-rdf-syntax-ns#"
   xmlns:svg="http://www.w3.org/2000/svg"
   xmlns="http://www.w3.org/2000/svg"
   xmlns:sodipodi="http://sodipodi.sourceforge.net/DTD/sodipodi-0.dtd"
   xmlns:inkscape="http://www.inkscape.org/namespaces/inkscape"
   width="91"
   height="15"
   viewBox="0 0 91 15"
   version="1.1"
   id="svg4"
   sodipodi:docname="logo-every-datastore-gray.svg"
   inkscape:version="0.92.3 (2405546, 2018-03-11)">
  <metadata
     id="metadata10">
    <rdf:RDF>
      <cc:Work
         rdf:about="">
        <dc:format>image/svg+xml</dc:format>
        <dc:type
           rdf:resource="http://purl.org/dc/dcmitype/StillImage" />
        <dc:title></dc:title>
      </cc:Work>
    </rdf:RDF>
  </metadata>
  <defs
     id="defs8" />
  <sodipodi:namedview
     pagecolor="#ffffff"
     bordercolor="#666666"
     borderopacity="1"
     objecttolerance="10"
     gridtolerance="10"
     guidetolerance="10"
     inkscape:pageopacity="0"
     inkscape:pageshadow="2"
     inkscape:window-width="1920"
     inkscape:window-height="992"
     id="namedview6"
     showgrid="false"
     inkscape:zoom="7.754386"
     inkscape:cx="16.965924"
     inkscape:cy="7.5"
     inkscape:window-x="0"
     inkscape:window-y="24"
     inkscape:window-maximized="1"
     inkscape:current-layer="svg4" />
  <g
     aria-label="EveryDatastore"
     style="font-style:normal;font-variant:normal;font-weight:normal;font-stretch:normal;font-size:12px;line-height:1.25;font-family:sans-serif;-inkscape-font-specification:sans-serif;letter-spacing:0px;word-spacing:0px;fill:#333333;fill-opacity:1;stroke:none"
     id="text5475"
     transform="translate(-1.2895928,-0.25791856)">
    <path
       d="M 1.5322784,11.194572 V 2.4672997 H 7.4129602 V 3.9886065 H 3.3774489 V 6.068152 H 7.1104034 V 7.5894588 H 3.3774489 v 2.0838068 h 4.0525568 v 1.5213064 z"
       style="font-style:normal;font-variant:normal;font-weight:bold;font-stretch:normal;font-family:'Inter UI';-inkscape-font-specification:'Inter UI Bold';fill:#333333"
       id="path835"
       inkscape:connector-curvature="0" />
    <path
       d="M 14.959835,4.6491179 12.671483,11.194572 H 10.626028 L 8.3376761,4.6491179 H 10.25529 l 1.359375,4.6832386 h 0.06818 L 13.03796,4.6491179 Z"
       style="font-style:normal;font-variant:normal;font-weight:bold;font-stretch:normal;font-family:'Inter UI';-inkscape-font-specification:'Inter UI Bold';fill:#333333"
       id="path837"
       inkscape:connector-curvature="0" />
    <path
       d="m 18.66083,11.322413 q -1.009944,0 -1.738637,-0.409091 Q 16.197761,10.49997 15.805716,9.7457088 15.41367,8.9871861 15.41367,7.9516747 q 0,-1.0099432 0.392046,-1.7727273 0.392045,-0.762784 1.103693,-1.1889204 0.715909,-0.4261364 1.678977,-0.4261364 0.865057,0 1.559659,0.3664773 0.698864,0.3664773 1.107955,1.1079545 0.409091,0.737216 0.409091,1.8494319 v 0.4985795 h -4.457386 v 0.00426 q 0,0.7329545 0.400568,1.1548295 0.400568,0.421875 1.082386,0.421875 0.455966,0 0.788352,-0.1917613 0.332387,-0.1917614 0.46875,-0.5667614 l 1.678978,0.1107954 q -0.191762,0.911932 -0.971591,1.457387 -0.77983,0.545454 -1.994318,0.545455 z M 17.207705,7.2613338 h 2.748579 q -0.0043,-0.5838068 -0.375,-0.9630682 -0.370739,-0.3792613 -0.963068,-0.3792613 -0.605114,0 -0.992898,0.3920454 -0.387784,0.3920455 -0.417613,0.9502841 z"
       style="font-style:normal;font-variant:normal;font-weight:bold;font-stretch:normal;font-family:'Inter UI';-inkscape-font-specification:'Inter UI Bold';fill:#333333"
       id="path839"
       inkscape:connector-curvature="0" />
    <path
       d="M 22.84975,11.194572 V 4.6491179 h 1.759943 v 1.1420455 h 0.06818 q 0.178977,-0.609375 0.596591,-0.9204546 0.421875,-0.3153409 0.975852,-0.3153409 0.264205,0 0.490057,0.063921 0.225852,0.06392 0.40483,0.1747159 l -0.545455,1.5 q -0.127841,-0.063921 -0.28125,-0.1065341 -0.149148,-0.046875 -0.336648,-0.046875 -0.549716,0 -0.933238,0.375 -0.379262,0.375 -0.383523,0.9758522 v 3.7031251 z"
       style="font-style:normal;font-variant:normal;font-weight:bold;font-stretch:normal;font-family:'Inter UI';-inkscape-font-specification:'Inter UI Bold';fill:#333333"
       id="path841"
       inkscape:connector-curvature="0" />
    <path
       d="m 29.039381,13.742868 q -0.387784,0 -0.664773,-0.06818 -0.272727,-0.06392 -0.426136,-0.132102 l 0.40909,-1.40625 q 0.481535,0.144886 0.80966,0.07244 0.328125,-0.06818 0.524147,-0.511364 L 29.81921,11.390595 27.462676,4.6491179 h 1.909091 l 1.355114,4.8068182 h 0.06818 L 32.16296,4.6491179 h 1.921875 l -2.556818,7.2954541 q -0.276989,0.784091 -0.886364,1.291194 -0.605113,0.507102 -1.602272,0.507102 z"
       style="font-style:normal;font-variant:normal;font-weight:bold;font-stretch:normal;font-family:'Inter UI';-inkscape-font-specification:'Inter UI Bold';fill:#333333"
       id="path843"
       inkscape:connector-curvature="0" />
    <path
       d="m 38.141653,11.194572 h -3.09375 V 2.4672997 h 3.119319 q 1.316761,0 2.267045,0.5241477 0.954545,0.5198864 1.465909,1.4957387 0.511364,0.9758523 0.511364,2.3352273 0,1.3636363 -0.515625,2.34375 -0.511364,0.9801136 -1.470171,1.5042616 -0.954545,0.524147 -2.284091,0.524147 z M 36.893074,9.6136065 h 1.171875 q 1.231534,0 1.866477,-0.6647727 0.639205,-0.6647727 0.639205,-2.1264204 0,-1.453125 -0.639205,-2.1136364 Q 39.296483,4.0482656 38.06921,4.0482656 h -1.176136 z"
       style="font-style:normal;font-variant:normal;font-weight:bold;font-stretch:normal;font-family:'Inter UI';-inkscape-font-specification:'Inter UI Bold';fill:#333333"
       id="path845"
       inkscape:connector-curvature="0" />
    <path
       d="m 45.59904,11.318152 q -0.9375,0 -1.555398,-0.490057 -0.617898,-0.490057 -0.617898,-1.4616476 0,-0.7286931 0.345171,-1.1463068 0.34517,-0.421875 0.903409,-0.6136363 0.5625,-0.1960228 1.210227,-0.2556819 0.852273,-0.085227 1.21875,-0.1832386 0.370739,-0.098011 0.366477,-0.421875 -0.0085,-0.8565341 -0.971591,-0.8565341 -0.490056,0 -0.779829,0.2130682 -0.289773,0.2130682 -0.383523,0.5411932 L 43.655858,6.5070724 q 0.1875,-0.8948863 0.928977,-1.419034 0.745739,-0.5241478 1.951705,-0.5241478 0.707386,0 1.333807,0.2301137 0.630681,0.2301136 1.022727,0.7201704 0.392045,0.4857955 0.392045,1.265625 v 4.4147723 h -1.721591 v -0.90767 h -0.05114 q -0.238636,0.455966 -0.715909,0.745739 -0.473011,0.285511 -1.197443,0.285511 z m 0.519886,-1.252841 q 0.596591,0 0.980114,-0.3451704 0.383522,-0.3494318 0.383522,-0.8650568 V 8.1604815 q -0.106534,0.072443 -0.332386,0.1278409 -0.221591,0.055398 -0.477273,0.098011 -0.25142,0.042614 -0.451704,0.068182 -0.477273,0.068182 -0.771307,0.2684659 -0.289773,0.2002841 -0.289773,0.5838069 0,0.375 0.268466,0.5667613 0.272727,0.1917615 0.690341,0.1917615 z"
       style="font-style:normal;font-variant:normal;font-weight:bold;font-stretch:normal;font-family:'Inter UI';-inkscape-font-specification:'Inter UI Bold';fill:#333333"
       id="path847"
       inkscape:connector-curvature="0" />
    <path
       d="M 54.175034,4.6491179 V 6.0127543 H 52.9435 v 3.1534091 q -0.0085,0.375 0.166193,0.5071022 0.174716,0.1321023 0.447443,0.1321023 0.127841,0 0.255682,-0.021307 0.127841,-0.021307 0.196023,-0.038352 l 0.285511,1.3551131 q -0.136363,0.04261 -0.383522,0.09801 -0.24716,0.0554 -0.600853,0.07244 -0.988636,0.03835 -1.589488,-0.430398 -0.596591,-0.473011 -0.59233,-1.4318178 V 6.0127543 H 50.233273 V 4.6491179 h 0.894886 V 3.0809361 H 52.9435 v 1.5681818 z"
       style="font-style:normal;font-variant:normal;font-weight:bold;font-stretch:normal;font-family:'Inter UI';-inkscape-font-specification:'Inter UI Bold';fill:#333333"
       id="path849"
       inkscape:connector-curvature="0" />
    <path
       d="m 57.247477,11.318152 q -0.9375,0 -1.555397,-0.490057 -0.617898,-0.490057 -0.617898,-1.4616476 0,-0.7286931 0.34517,-1.1463068 0.345171,-0.421875 0.903409,-0.6136363 0.5625,-0.1960228 1.210228,-0.2556819 0.852272,-0.085227 1.21875,-0.1832386 0.370738,-0.098011 0.366477,-0.421875 -0.0085,-0.8565341 -0.971591,-0.8565341 -0.490057,0 -0.77983,0.2130682 -0.289772,0.2130682 -0.383522,0.5411932 L 55.304295,6.5070724 q 0.1875,-0.8948863 0.928978,-1.419034 0.745738,-0.5241478 1.951704,-0.5241478 0.707387,0 1.333807,0.2301137 0.630682,0.2301136 1.022727,0.7201704 0.392046,0.4857955 0.392046,1.265625 v 4.4147723 h -1.721591 v -0.90767 h -0.05114 q -0.238637,0.455966 -0.71591,0.745739 -0.473011,0.285511 -1.197443,0.285511 z m 0.519887,-1.252841 q 0.596591,0 0.980113,-0.3451704 Q 59.131,9.3707088 59.131,8.8550838 V 8.1604815 q -0.106534,0.072443 -0.332386,0.1278409 -0.221591,0.055398 -0.477273,0.098011 -0.251421,0.042614 -0.451705,0.068182 -0.477272,0.068182 -0.771306,0.2684659 -0.289773,0.2002841 -0.289773,0.5838069 0,0.375 0.268466,0.5667613 0.272727,0.1917615 0.690341,0.1917615 z"
       style="font-style:normal;font-variant:normal;font-weight:bold;font-stretch:normal;font-family:'Inter UI';-inkscape-font-specification:'Inter UI Bold';fill:#333333"
       id="path851"
       inkscape:connector-curvature="0" />
    <path
       d="m 67.78796,6.5155952 -1.661932,0.1022727 q -0.06818,-0.3153409 -0.34517,-0.5411932 -0.276989,-0.2258523 -0.75,-0.2258523 -0.421875,0 -0.715909,0.1789773 -0.289773,0.1747159 -0.285512,0.46875 -0.0043,0.234375 0.183239,0.3963068 0.191761,0.1619319 0.647727,0.2599432 l 1.184659,0.2386364 q 1.887785,0.3877841 1.892046,1.7727273 -0.0043,0.6434659 -0.379261,1.1292616 -0.375,0.485795 -1.03125,0.758522 -0.65625,0.268466 -1.504262,0.268466 -1.299716,0 -2.071023,-0.541193 -0.771306,-0.545454 -0.899147,-1.4829544 l 1.785511,-0.09375 q 0.08523,0.4005682 0.392046,0.6051137 0.311079,0.2045457 0.796875,0.2045457 0.477272,0 0.767045,-0.1875003 0.294034,-0.1875 0.298295,-0.4772727 -0.01278,-0.4857955 -0.839488,-0.6519886 L 64.118926,8.4715611 q -1.900568,-0.3792614 -1.892045,-1.8707387 -0.0043,-0.9460227 0.754261,-1.4914772 0.762784,-0.5454546 2.019886,-0.5454546 1.240057,0 1.951705,0.5241478 0.715909,0.5241477 0.835227,1.4275568 z"
       style="font-style:normal;font-variant:normal;font-weight:bold;font-stretch:normal;font-family:'Inter UI';-inkscape-font-specification:'Inter UI Bold';fill:#333333"
       id="path853"
       inkscape:connector-curvature="0" />
    <path
       d="m 72.573472,4.6491179 v 1.3636364 h -1.231535 v 3.1534091 q -0.0085,0.375 0.166194,0.5071022 0.174716,0.1321023 0.447443,0.1321023 0.127841,0 0.255682,-0.021307 0.127841,-0.021307 0.196022,-0.038352 l 0.285512,1.3551131 q -0.136364,0.04261 -0.383523,0.09801 -0.247159,0.0554 -0.600852,0.07244 -0.988637,0.03835 -1.589489,-0.430398 -0.596591,-0.473011 -0.592329,-1.4318178 V 6.0127543 H 68.63171 V 4.6491179 h 0.894887 V 3.0809361 h 1.81534 v 1.5681818 z"
       style="font-style:normal;font-variant:normal;font-weight:bold;font-stretch:normal;font-family:'Inter UI';-inkscape-font-specification:'Inter UI Bold';fill:#333333"
       id="path855"
       inkscape:connector-curvature="0" />
    <path
       d="m 76.666511,11.322413 q -0.992897,0 -1.717329,-0.421875 Q 74.229011,10.474402 73.836966,9.7158793 73.44492,8.9573565 73.44492,7.9474134 q 0,-1.0142046 0.392046,-1.7727273 0.392045,-0.7627841 1.112216,-1.1846591 0.724432,-0.4261364 1.717329,-0.4261364 0.992898,0 1.713069,0.4261364 0.724431,0.421875 1.116477,1.1846591 0.392045,0.7585227 0.392045,1.7727273 0,1.0099431 -0.392045,1.7684659 -0.392046,0.7585227 -1.116477,1.1846587 -0.720171,0.421875 -1.713069,0.421875 z m 0.0085,-1.4062496 q 0.673296,0 1.018466,-0.5625 0.349432,-0.5625 0.349432,-1.4190341 0,-0.8565341 -0.349432,-1.4190341 -0.34517,-0.5667614 -1.018466,-0.5667614 -0.686079,0 -1.035511,0.5667614 -0.349432,0.5625 -0.349432,1.4190341 0,0.8565341 0.349432,1.4190341 0.349432,0.5625 1.035511,0.5625 z"
       style="font-style:normal;font-variant:normal;font-weight:bold;font-stretch:normal;font-family:'Inter UI';-inkscape-font-specification:'Inter UI Bold';fill:#333333"
       id="path857"
       inkscape:connector-curvature="0" />
    <path
       d="M 81.0685,11.194572 V 4.6491179 h 1.759943 v 1.1420455 h 0.06818 q 0.178977,-0.609375 0.596591,-0.9204546 0.421875,-0.3153409 0.975852,-0.3153409 0.264205,0 0.490057,0.063921 0.225852,0.06392 0.40483,0.1747159 l -0.545455,1.5 Q 84.690657,6.2300838 84.537248,6.1874707 84.3881,6.1405957 84.2006,6.1405957 q -0.549716,0 -0.933238,0.375 -0.379262,0.375 -0.383523,0.9758522 v 3.7031251 z"
       style="font-style:normal;font-variant:normal;font-weight:bold;font-stretch:normal;font-family:'Inter UI';-inkscape-font-specification:'Inter UI Bold';fill:#333333"
       id="path859"
       inkscape:connector-curvature="0" />
    <path
       d="m 88.87958,11.322413 q -1.009944,0 -1.738637,-0.409091 Q 86.416511,10.49997 86.024466,9.7457088 85.63242,8.9871861 85.63242,7.9516747 q 0,-1.0099432 0.392046,-1.7727273 0.392045,-0.762784 1.103693,-1.1889204 0.715909,-0.4261364 1.678977,-0.4261364 0.865057,0 1.559659,0.3664773 0.698864,0.3664773 1.107955,1.1079545 0.409091,0.737216 0.409091,1.8494319 v 0.4985795 h -4.457386 v 0.00426 q 0,0.7329545 0.400568,1.1548295 0.400568,0.421875 1.082386,0.421875 0.455966,0 0.788352,-0.1917613 0.332387,-0.1917614 0.46875,-0.5667614 l 1.678978,0.1107954 q -0.191762,0.911932 -0.971591,1.457387 -0.77983,0.545454 -1.994318,0.545455 z M 87.426455,7.2613338 h 2.748579 q -0.0043,-0.5838068 -0.375,-0.9630682 -0.370739,-0.3792613 -0.963068,-0.3792613 -0.605114,0 -0.992898,0.3920454 -0.387784,0.3920455 -0.417613,0.9502841 z"
       style="font-style:normal;font-variant:normal;font-weight:bold;font-stretch:normal;font-family:'Inter UI';-inkscape-font-specification:'Inter UI Bold';fill:#333333"
       id="path861"
       inkscape:connector-curvature="0" />
  </g>
</svg>
